HIERARCHY
ROOT Hips
{
	OFFSET 0 0 0
	CHANNELS 6 Xposition Yposition Zposition Yrotation Xrotation Zrotation
	JOINT Spine
	{
		OFFSET -0 8.23869 -2.62608
		CHANNELS 3 Yrotation Xrotation Zrotation
		JOINT Spine1
		{
			OFFSET -0 7.92598 0
			CHANNELS 3 Yrotation Xrotation Zrotation
			JOINT Spine2
			{
				OFFSET -0 7.92598 0
				CHANNELS 3 Yrotation Xrotation Zrotation
				JOINT Spine3
				{
					OFFSET -0 7.92598 0
					CHANNELS 3 Yrotation Xrotation Zrotation
					JOINT Neck
					{
						OFFSET -0 15.3347 3.62608
						CHANNELS 3 Yrotation Xrotation Zrotation
						JOINT Head
						{
							OFFSET -0 10.2984 0
							CHANNELS 3 Yrotation Xrotation Zrotation
							End Site
							{
								OFFSET 0 15 0
							}
						}
					}
					JOINT LeftShoulder
					{
						OFFSET 1.71639 3.24826 3.43279
						CHANNELS 3 Yrotation Xrotation Zrotation
						JOINT LeftArm
						{
							OFFSET 19.515 0 0
							CHANNELS 3 Yrotation Xrotation Zrotation
							JOINT LeftForeArm
							{
								OFFSET 23.117 0 0
								CHANNELS 3 Yrotation Xrotation Zrotation
								JOINT LeftHand
								{
									OFFSET 24.3821 0 0
									CHANNELS 3 Yrotation Xrotation Zrotation
									JOINT LeftHandThumb1
									{
										OFFSET 4.89344 0 2.57866
										CHANNELS 3 Yrotation Xrotation Zrotation
										JOINT LeftHandThumb2
										{
											OFFSET 3 0 1
											CHANNELS 3 Yrotation Xrotation Zrotation
											JOINT LeftHandThumb3
											{
												OFFSET 2.1 0 0
												CHANNELS 3 Yrotation Xrotation Zrotation
												JOINT LeftHandThumb4
												{
													OFFSET 1.305 0 0
													CHANNELS 3 Yrotation Xrotation Zrotation
													End Site
													{
														OFFSET -0 0 0
													}
												}
											}
										}
									}
									JOINT LeftHandIndex1
									{
										OFFSET 9.17063 0 3.39553
										CHANNELS 3 Yrotation Xrotation Zrotation
										JOINT LeftHandIndex2
										{
											OFFSET 3.5 0 0
											CHANNELS 3 Yrotation Xrotation Zrotation
											JOINT LeftHandIndex3
											{
												OFFSET 2.45 0 0
												CHANNELS 3 Yrotation Xrotation Zrotation
												JOINT LeftHandIndex4
												{
													OFFSET 1.5225 0 0
													CHANNELS 3 Yrotation Xrotation Zrotation
													End Site
													{
														OFFSET -0 0 0
													}
												}
											}
										}
									}
									JOINT LeftHandMiddle1
									{
										OFFSET 9.21351 0 0.900721
										CHANNELS 3 Yrotation Xrotation Zrotation
										JOINT LeftHandMiddle2
										{
											OFFSET 4.6 0 0
											CHANNELS 3 Yrotation Xrotation Zrotation
											JOINT LeftHandMiddle3
											{
												OFFSET 3.22 0 0
												CHANNELS 3 Yrotation Xrotation Zrotation
												JOINT LeftHandMiddle4
												{
													OFFSET 2.001 0 0
													CHANNELS 3 Yrotation Xrotation Zrotation
													End Site
													{
														OFFSET -0 0 0
													}
												}
											}
										}
									}
									JOINT LeftHandRing1
									{
										OFFSET 8.95639 0 -1.59409
										CHANNELS 3 Yrotation Xrotation Zrotation
										JOINT LeftHandRing2
										{
											OFFSET 3.75 0 0
											CHANNELS 3 Yrotation Xrotation Zrotation
											JOINT LeftHandRing3
											{
												OFFSET 2.625 0 0
												CHANNELS 3 Yrotation Xrotation Zrotation
												JOINT LeftHandRing4
												{
													OFFSET 1.63125 0 0
													CHANNELS 3 Yrotation Xrotation Zrotation
													End Site
													{
														OFFSET -0 0 0
													}
												}
											}
										}
									}
									JOINT LeftHandPinky1
									{
										OFFSET 8.39928 0 -4.08889
										CHANNELS 3 Yrotation Xrotation Zrotation
										JOINT LeftHandPinky2
										{
											OFFSET 2.875 0 0
											CHANNELS 3 Yrotation Xrotation Zrotation
											JOINT LeftHandPinky3
											{
												OFFSET 2.0125 0 0
												CHANNELS 3 Yrotation Xrotation Zrotation
												JOINT LeftHandPinky4
												{
													OFFSET 1.25062 0 0
													CHANNELS 3 Yrotation Xrotation Zrotation
													End Site
													{
														OFFSET -0 0 0
													}
												}
											}
										}
									}
								}
							}
						}
					}
					JOINT RightShoulder
					{
						OFFSET -1.71639 3.24826 3.43279
						CHANNELS 3 Yrotation Xrotation Zrotation
						JOINT RightArm
						{
							OFFSET -19.515 0 0
							CHANNELS 3 Yrotation Xrotation Zrotation
							JOINT RightForeArm
							{
								OFFSET -23.117 0 0
								CHANNELS 3 Yrotation Xrotation Zrotation
								JOINT RightHand
								{
									OFFSET -24.3821 0 0
									CHANNELS 3 Yrotation Xrotation Zrotation
									JOINT RightHandThumb1
									{
										OFFSET -4.44833 0 2.59928
										CHANNELS 3 Yrotation Xrotation Zrotation
										JOINT RightHandThumb2
										{
											OFFSET -3 0 1
											CHANNELS 3 Yrotation Xrotation Zrotation
											JOINT RightHandThumb3
											{
												OFFSET -2.1 0 0
												CHANNELS 3 Yrotation Xrotation Zrotation
												JOINT RightHandThumb4
												{
													OFFSET -1.305 0 0
													CHANNELS 3 Yrotation Xrotation Zrotation
													End Site
													{
														OFFSET -0 0 0
													}
												}
											}
										}
									}
									JOINT RightHandIndex1
									{
										OFFSET -7.73763 0 3.41549
										CHANNELS 3 Yrotation Xrotation Zrotation
										JOINT RightHandIndex2
										{
											OFFSET -3.5 0 0
											CHANNELS 3 Yrotation Xrotation Zrotation
											JOINT RightHandIndex3
											{
												OFFSET -2.45 0 0
												CHANNELS 3 Yrotation Xrotation Zrotation
												JOINT RightHandIndex4
												{
													OFFSET -1.5225 0 0
													CHANNELS 3 Yrotation Xrotation Zrotation
													End Site
													{
														OFFSET -0 0 0
													}
												}
											}
										}
									}
									JOINT RightHandMiddle1
									{
										OFFSET -8.14217 0 1.11673
										CHANNELS 3 Yrotation Xrotation Zrotation
										JOINT RightHandMiddle2
										{
											OFFSET -4.6 0 0
											CHANNELS 3 Yrotation Xrotation Zrotation
											JOINT RightHandMiddle3
											{
												OFFSET -3.22 0 0
												CHANNELS 3 Yrotation Xrotation Zrotation
												JOINT RightHandMiddle4
												{
													OFFSET -2.001 0 0
													CHANNELS 3 Yrotation Xrotation Zrotation
													End Site
													{
														OFFSET -0 0 0
													}
												}
											}
										}
									}
									JOINT RightHandRing1
									{
										OFFSET -8.24672 0 -1.18204
										CHANNELS 3 Yrotation Xrotation Zrotation
										JOINT RightHandRing2
										{
											OFFSET -3.75 0 0
											CHANNELS 3 Yrotation Xrotation Zrotation
											JOINT RightHandRing3
											{
												OFFSET -2.625 0 0
												CHANNELS 3 Yrotation Xrotation Zrotation
												JOINT RightHandRing4
												{
													OFFSET -1.63125 0 0
													CHANNELS 3 Yrotation Xrotation Zrotation
													End Site
													{
														OFFSET -0 0 0
													}
												}
											}
										}
									}
									JOINT RightHandPinky1
									{
										OFFSET -8.05126 0 -3.4808
										CHANNELS 3 Yrotation Xrotation Zrotation
										JOINT RightHandPinky2
										{
											OFFSET -2.875 0 0
											CHANNELS 3 Yrotation Xrotation Zrotation
											JOINT RightHandPinky3
											{
												OFFSET -2.0125 0 0
												CHANNELS 3 Yrotation Xrotation Zrotation
												JOINT RightHandPinky4
												{
													OFFSET -1.25062 0 0
													CHANNELS 3 Yrotation Xrotation Zrotation
													End Site
													{
														OFFSET -0 0 0
													}
												}
											}
										}
									}
								}
							}
						}
					}
				}
			}
		}
	}
	JOINT LeftUpLeg
	{
		OFFSET 10.2984 -3.43279 3
		CHANNELS 3 Yrotation Xrotation Zrotation
		JOINT LeftLeg
		{
			OFFSET -0 -43.8423 2.40295
			CHANNELS 3 Yrotation Xrotation Zrotation
			JOINT LeftFoot
			{
				OFFSET -0 -38.9759 -2.40295
				CHANNELS 3 Yrotation Xrotation Zrotation
				JOINT LeftToeBase
				{
					OFFSET -0 -9.09429 9.70353
					CHANNELS 3 Yrotation Xrotation Zrotation
					End Site
					{
						OFFSET 0 0 5
					}
				}
			}
		}
	}
	JOINT RightUpLeg
	{
		OFFSET -10.2984 -3.43279 3
		CHANNELS 3 Yrotation Xrotation Zrotation
		JOINT RightLeg
		{
			OFFSET -0 -43.8423 2.40295
			CHANNELS 3 Yrotation Xrotation Zrotation
			JOINT RightFoot
			{
				OFFSET -0 -38.9759 -2.40295
				CHANNELS 3 Yrotation Xrotation Zrotation
				JOINT RightToeBase
				{
					OFFSET -0 -9.09429 9.70353
					CHANNELS 3 Yrotation Xrotation Zrotation
					End Site
					{
						OFFSET 0 0 5
					}
				}
			}
		}
	}
}
MOTION
Frames: 4
Frame Time: 0.0047619
12.365722 95.710229 -15.783678 -30.729737 3.319684 4.213206 3.214130 1.451078 3.172595 2.660884 0.841248 2.002656 0.721771 0.356975 0.444590 0.090199 -0.010390 0.142183 40.639635 11.367492 -17.748540 17.970161 -4.979121 -2.242866 11.923218 0.039276 5.801915 3.527466 -4.332433 -40.822587 -12.912441 4.455716 13.857703 24.122650 -17.274056 58.613300 7.670861 0.223569 -7.433762 8.816690 0.342996 -8.545402 -45.563109 11.701474 1.904108 -0.005139 0.054174 7.717883 -0.005139 0.054174 7.717883 -0.010314 0.042073 6.174274 -0.007527 0.020295 3.087139 -0.003744 0.043147 1.245354 -0.003744 0.043147 1.245354 -0.005532 0.034001 0.996246 -0.003668 0.016861 0.498112 -0.009990 0.096885 10.316506 -0.009990 0.096885 10.316506 -0.018202 0.075439 8.253171 -0.013293 0.036412 4.126577 -0.009990 0.096850 0.287570 -0.009990 0.096850 0.287570 -0.004773 0.077437 0.230021 -0.001346 0.038718 0.115019 -172.125132 -0.006607 -179.904010 1.095521 -3.166793 -20.673463 20.620969 -5.308036 1.976505 8.099005 4.730162 -4.019926 -121.693447 -54.629022 72.565231 5.597519 13.909012 -22.878248 6.042759 16.116516 -26.245881 -57.537497 10.701267 14.704128 -0.000008 0.000006 -12.499998 -0.000008 0.000006 -12.499998 -0.000001 0.000001 -10.000005 -0.000002 -0.000009 -4.999998 -0.173859 0.243911 -10.749428 -0.173859 0.243911 -10.749428 -0.103861 0.214731 -8.599351 -0.036650 0.113232 -4.299594 -0.005999 0.009688 -4.536953 -0.005999 0.009688 -4.536953 -0.004376 0.007999 -3.629557 -0.002000 0.004089 -1.814785 -0.031699 0.043922 16.013299 -0.031699 0.043922 16.013299 -0.034293 0.026344 12.810646 -0.019672 0.008872 6.405335 7.670861 0.223569 -7.433762 8.245967 -4.946904 -12.272452 0.000000 7.671349 0.000000 14.578675 1.547368 -6.561034 0.000000 -9.019702 0.000000 -19.708789 -29.873764 -6.856940 0.000000 48.085968 0.000000 -35.264764 11.098132 0.552149 0.000000 -18.578716 0.000000
12.470701 95.673212 -15.724667 -30.723508 3.358568 4.291994 3.160271 1.486485 3.175406 2.594858 0.952366 1.999240 0.714209 0.402174 0.491901 0.087093 -0.023860 0.147414 41.024784 11.465690 -17.947246 18.139358 -5.086536 -2.384724 11.863607 0.046198 5.631458 3.558697 -3.902760 -41.121409 -13.251119 4.327852 13.770562 24.226270 -17.756551 58.949548 7.670861 0.223569 -7.433762 8.816690 0.342996 -8.545402 -45.563109 11.701474 1.904108 -0.005139 0.054174 7.717883 -0.005139 0.054174 7.717883 -0.010314 0.042073 6.174274 -0.007527 0.020295 3.087139 -0.003744 0.043147 1.245354 -0.003744 0.043147 1.245354 -0.005532 0.034001 0.996246 -0.003668 0.016861 0.498112 -0.009990 0.096885 10.316506 -0.009990 0.096885 10.316506 -0.018202 0.075439 8.253171 -0.013293 0.036412 4.126577 -0.009990 0.096850 0.287570 -0.009990 0.096850 0.287570 -0.004773 0.077437 0.230021 -0.001346 0.038718 0.115019 -172.125132 -0.006607 -179.904010 0.949477 -3.163613 -20.553824 21.101122 -5.577630 2.023414 8.285361 3.790844 -3.405772 -114.132146 -56.384794 67.187631 5.597519 13.909012 -22.878248 6.042759 16.116516 -26.245881 -57.537497 10.701267 14.704128 -0.000008 0.000006 -12.499998 -0.000008 0.000006 -12.499998 -0.000001 0.000001 -10.000005 -0.000002 -0.000009 -4.999998 -0.173859 0.243911 -10.749428 -0.173859 0.243911 -10.749428 -0.103861 0.214731 -8.599351 -0.036650 0.113232 -4.299594 -0.005999 0.009688 -4.536953 -0.005999 0.009688 -4.536953 -0.004376 0.007999 -3.629557 -0.002000 0.004089 -1.814785 -0.031699 0.043922 16.013299 -0.031699 0.043922 16.013299 -0.034293 0.026344 12.810646 -0.019672 0.008872 6.405335 7.670861 0.223569 -7.433762 8.343228 -4.963420 -12.426400 0.000000 7.710165 0.000000 14.461688 1.513702 -6.633602 0.000000 -9.027359 0.000000 -20.608992 -30.981612 -6.720773 0.000000 49.211352 0.000000 -35.370943 10.401006 0.139968 0.000000 -18.195806 0.000000
12.577814 95.640308 -15.672151 -30.693837 3.431286 4.375261 3.054779 1.564520 3.173857 2.522431 0.964880 2.007870 0.777043 0.434549 0.495131 0.145736 -0.007716 0.120266 41.348335 11.381489 -18.148366 18.304033 -4.995317 -2.306686 11.781141 -0.072124 5.544952 3.227291 -2.945215 -41.472267 -13.558067 4.136809 13.961831 24.428670 -18.574025 59.004826 7.670861 0.223569 -7.433762 8.816690 0.342996 -8.545402 -45.563109 11.701474 1.904108 -0.005139 0.054174 7.717883 -0.005139 0.054174 7.717883 -0.010314 0.042073 6.174274 -0.007527 0.020295 3.087139 -0.003744 0.043147 1.245354 -0.003744 0.043147 1.245354 -0.005532 0.034001 0.996246 -0.003668 0.016861 0.498112 -0.009990 0.096885 10.316506 -0.009990 0.096885 10.316506 -0.018202 0.075439 8.253171 -0.013293 0.036412 4.126577 -0.009990 0.096850 0.287570 -0.009990 0.096850 0.287570 -0.004773 0.077437 0.230021 -0.001346 0.038718 0.115019 -172.125132 -0.006607 -179.904010 0.866690 -3.181948 -20.386899 21.277220 -5.889224 2.060119 8.708341 3.075950 -2.666580 -107.353166 -57.617051 62.384380 5.597519 13.909012 -22.878248 6.042759 16.116516 -26.245881 -57.537497 10.701267 14.704128 -0.000008 0.000006 -12.499998 -0.000008 0.000006 -12.499998 -0.000001 0.000001 -10.000005 -0.000002 -0.000009 -4.999998 -0.173859 0.243911 -10.749428 -0.173859 0.243911 -10.749428 -0.103861 0.214731 -8.599351 -0.036650 0.113232 -4.299594 -0.005999 0.009688 -4.536953 -0.005999 0.009688 -4.536953 -0.004376 0.007999 -3.629557 -0.002000 0.004089 -1.814785 -0.031699 0.043922 16.013299 -0.031699 0.043922 16.013299 -0.034293 0.026344 12.810646 -0.019672 0.008872 6.405335 7.670861 0.223569 -7.433762 8.473459 -5.005905 -12.588597 0.000000 7.734366 0.000000 14.305828 1.525520 -6.742559 0.000000 -9.073991 0.000000 -21.363037 -32.108896 -6.608500 0.000000 50.342596 0.000000 -35.595198 9.830280 0.084571 0.000000 -18.060612 0.000000
12.677432 95.607916 -15.624475 -30.647384 3.492342 4.451823 2.965318 1.652032 3.164002 2.462693 1.013629 2.008016 0.826467 0.396272 0.498818 0.186817 0.023381 0.147934 41.665113 11.489913 -18.377617 18.444065 -5.183006 -2.270809 11.762802 -0.075272 5.399513 2.759144 -2.160614 -41.760641 -13.766668 3.929010 13.990566 31.057189 -22.857501 43.889426 4.733506 -1.869454 -2.070743 5.440635 -2.127462 -2.397218 -43.726334 10.349366 0.839175 -0.022842 0.076922 11.378364 -0.022842 0.076922 11.378364 -0.028900 0.057009 9.102659 -0.018418 0.026029 4.551324 -0.034948 0.108920 6.876125 -0.034948 0.108920 6.876125 -0.036275 0.083672 5.500871 -0.021453 0.040187 2.750440 -0.001968 0.029035 10.666606 -0.001968 0.029035 10.666606 -0.004890 0.022607 8.533251 -0.003803 0.010883 4.266612 0.003882 0.012946 -0.282042 0.003882 0.012946 -0.282042 0.003861 0.010253 -0.225655 0.002180 0.005104 -0.112841 -172.125157 -0.006607 -179.904010 0.727162 -3.174756 -20.273068 21.465465 -6.072763 2.087702 9.143690 2.143010 -2.016809 -107.731963 -56.424435 67.710255 2.901125 9.122648 -16.448419 3.080064 10.553897 -18.917400 -55.742907 5.341837 17.984205 0.000003 0.000000 -12.500010 0.000003 0.000000 -12.500010 -0.000000 -0.000001 -9.999996 0.000000 0.000000 -5.000004 -0.052765 0.069080 -12.091735 -0.052765 0.069080 -12.091735 -0.031647 0.061600 -9.673332 -0.011124 0.032713 -4.836655 -0.001537 0.002292 -4.544144 -0.001537 0.002292 -4.544144 -0.001146 0.001896 -3.635310 -0.000520 0.000981 -1.817663 -0.009925 0.013170 15.708819 -0.009925 0.013170 15.708819 -0.010569 0.007839 12.567058 -0.006021 0.002614 6.283525 4.733506 -1.869454 -2.070743 8.586739 -5.052436 -12.734794 0.000000 7.777660 0.000000 14.156431 1.535920 -6.909794 0.000000 -9.084376 0.000000 -22.130366 -33.205496 -6.470172 0.000000 51.477150 0.000000 -35.737823 9.009024 0.238359 0.000000 -17.765532 0.000000
